<svg id="katman_1" data-name="katman 1" xmlns="http://www.w3.org/2000/svg" xmlns:xlink="http://www.w3.org/1999/xlink" viewBox="0 0 129.19 129.19"><defs><style>.cls-1{fill:none;}.cls-2{fill:#e52f4d;}.cls-3{clip-path:url(#clip-path);}</style><clipPath id="clip-path" transform="translate(0 -0.1)"><rect id="SVGID" class="cls-1" width="129.29" height="129.6"/></clipPath></defs><title>brain</title><path class="cls-2" d="M129.19,2.76a2.52,2.52,0,0,0-.74-1.92A2.49,2.49,0,0,0,126.53.1C113.71.82,83.08,7,63.45,26.59A156.26,156.26,0,0,0,51.57,39.94,48,48,0,0,0,.33,63.82a2.52,2.52,0,0,0,3.42,3.43,42.91,42.91,0,0,1,33-3.55A55.46,55.46,0,0,0,34.35,70a7.37,7.37,0,0,0,1.21,6.53,25.15,25.15,0,0,0-2,1.83c-6.49,6.49-7.81,22.32-7.87,23a2.53,2.53,0,0,0,2.52,2.72h.2c.67,0,16.5-1.37,23-7.86a25.38,25.38,0,0,0,1.9-2.13,7.31,7.31,0,0,0,6,.87,54.91,54.91,0,0,0,6.31-2.36,42.86,42.86,0,0,1-3.55,33A2.53,2.53,0,0,0,65.47,129,48,48,0,0,0,89.35,77.72,151.48,151.48,0,0,0,102.7,65.84c9.66-9.66,17-22.62,21.76-38.53a119.86,119.86,0,0,0,4.73-24.55ZM9.6,59.23c.76-.89,1.56-1.75,2.38-2.58A42.71,42.71,0,0,1,48.12,44.48a115.77,115.77,0,0,0-9.2,14.62,48,48,0,0,0-29.32.13ZM47.79,92.64c-3.47,3.47-11.61,5.3-16.75,6,.74-5.14,2.57-13.28,6.05-16.76a20.7,20.7,0,0,1,2-1.75L49.54,90.64a18.29,18.29,0,0,1-1.75,2Zm10-2.52a2.45,2.45,0,0,1-2.36-.69L39.86,73.83a2.43,2.43,0,0,1-.68-2.37,50.83,50.83,0,0,1,2.28-6A43.06,43.06,0,0,1,63.87,87.84a52,52,0,0,1-6,2.28Zm14.81,27.19c-.83.83-1.69,1.62-2.58,2.38a47.93,47.93,0,0,0,.13-29.31,118.09,118.09,0,0,0,14.62-9.2,42.62,42.62,0,0,1-12.17,36.13Zm26.49-55C90.43,71,79.32,79.82,68.41,85.61A48.08,48.08,0,0,0,43.68,60.89C49.47,50,58.31,38.87,67,30.16S87.57,14.63,102,10.1L119.2,27.26c-4.54,14.46-11.28,26.23-20.07,35Zm21.66-40.55L107.57,8.5a119.36,119.36,0,0,1,16.31-3.08,121.29,121.29,0,0,1-3.09,16.3Zm0,0" transform="translate(0 -0.1)"/><g class="cls-3"><path class="cls-2" d="M4.32,128.54l15.77-15.77a2.52,2.52,0,0,0-3.57-3.57L.75,125a2.52,2.52,0,0,0,3.57,3.57Zm0,0" transform="translate(0 -0.1)"/><path class="cls-2" d="M29.55,128.54l15.77-15.77a2.52,2.52,0,0,0-3.57-3.57L26,125a2.52,2.52,0,0,0,3.57,3.57Zm0,0" transform="translate(0 -0.1)"/><path class="cls-2" d="M.75,103.31a2.52,2.52,0,0,0,3.57,0L20.09,87.54A2.52,2.52,0,1,0,16.52,84L.75,99.74a2.53,2.53,0,0,0,0,3.57Zm0,0" transform="translate(0 -0.1)"/></g><path class="cls-2" d="M84.86,26.59a12.61,12.61,0,1,0,17.84,0,12.61,12.61,0,0,0-17.84,0ZM99.13,40.86h0a7.57,7.57,0,1,1,0-10.7,7.55,7.55,0,0,1,0,10.7Zm0,0" transform="translate(0 -0.1)"/><path class="cls-2" d="M70.59,33.73a2.52,2.52,0,1,0,3.57,0,2.52,2.52,0,0,0-3.57,0Zm0,0" transform="translate(0 -0.1)"/><path class="cls-2" d="M67.15,41a2.51,2.51,0,0,0-3.55.27,159.47,159.47,0,0,0-10.93,14A2.53,2.53,0,1,0,56.9,58,155.94,155.94,0,0,1,67.43,44.56,2.53,2.53,0,0,0,67.15,41Zm0,0" transform="translate(0 -0.1)"/></svg>