<?xml version="1.0" encoding="utf-8"?>
<!-- Generator: Adobe Illustrator 17.0.0, SVG Export Plug-In . SVG Version: 6.00 Build 0)  -->
<!DOCTYPE svg PUBLIC "-//W3C//DTD SVG 1.1//EN" "http://www.w3.org/Graphics/SVG/1.1/DTD/svg11.dtd">
<svg version="1.1" id="katman_1" xmlns="http://www.w3.org/2000/svg" xmlns:xlink="http://www.w3.org/1999/xlink" x="0px" y="0px"
	 width="718.684px" height="186.013px" viewBox="0 0 718.684 186.013" enable-background="new 0 0 718.684 186.013"
	 xml:space="preserve">
<rect x="448.291" y="22.318" fill="#565555" width="1.456" height="141.377"/>
<g>
	<path d="M504.98,46.122c2.755,2.296,4.133,5.457,4.133,9.483c0,4.025-1.378,7.187-4.133,9.482
		c-2.754,2.296-6.533,3.443-11.336,3.443h-9.165v11.231h-5.297V42.679h14.463C498.447,42.679,502.226,43.827,504.98,46.122z
		 M501.167,61.776c1.765-1.43,2.649-3.486,2.649-6.171s-0.883-4.742-2.649-6.172c-1.767-1.431-4.327-2.146-7.681-2.146h-9.007
		v16.634h9.007C496.84,63.922,499.4,63.207,501.167,61.776z"/>
	<path d="M540.633,79.762l-7.999-11.389c-0.989,0.071-1.767,0.105-2.331,0.105h-9.165v11.284h-5.297V42.679h14.463
		c4.803,0,8.582,1.148,11.336,3.443c2.755,2.296,4.133,5.457,4.133,9.483c0,2.86-0.707,5.297-2.119,7.31
		c-1.413,2.014-3.426,3.479-6.039,4.398l8.794,12.449H540.633z M537.826,61.803c1.765-1.447,2.649-3.513,2.649-6.197
		s-0.883-4.742-2.649-6.172c-1.767-1.431-4.327-2.146-7.681-2.146h-9.007v16.687h9.007
		C533.499,63.975,536.059,63.251,537.826,61.803z"/>
	<path d="M559.915,77.723c-3.002-1.642-5.36-3.911-7.072-6.808c-1.713-2.896-2.57-6.126-2.57-9.695c0-3.566,0.857-6.798,2.57-9.694
		c1.712-2.896,4.069-5.166,7.072-6.808c3.002-1.642,6.375-2.462,10.118-2.462c3.709,0,7.064,0.82,10.066,2.462
		c3.001,1.642,5.351,3.903,7.045,6.781c1.696,2.879,2.544,6.119,2.544,9.72c0,3.603-0.848,6.844-2.544,9.722
		c-1.694,2.879-4.044,5.139-7.045,6.781c-3.002,1.641-6.357,2.462-10.066,2.462C566.29,80.185,562.917,79.364,559.915,77.723z
		 M577.371,73.617c2.172-1.236,3.884-2.94,5.139-5.112c1.253-2.172,1.881-4.599,1.881-7.285c0-2.683-0.627-5.111-1.881-7.283
		c-1.255-2.172-2.967-3.875-5.139-5.112c-2.172-1.236-4.618-1.854-7.338-1.854s-5.183,0.618-7.39,1.854
		c-2.208,1.237-3.939,2.94-5.191,5.112c-1.255,2.172-1.881,4.6-1.881,7.283c0,2.685,0.626,5.112,1.881,7.285
		c1.252,2.172,2.983,3.877,5.191,5.112c2.206,1.237,4.67,1.854,7.39,1.854S575.199,74.854,577.371,73.617z"/>
	<path d="M594.509,78.783c-1.907-0.935-3.445-2.252-4.609-3.948l3.072-3.602c2.048,2.931,4.627,4.396,7.734,4.396
		c2.083,0,3.664-0.635,4.742-1.906c1.076-1.272,1.615-3.143,1.615-5.616v-20.82h-13.402v-4.609h18.647v25.164
		c0,4.097-0.981,7.178-2.94,9.244c-1.961,2.066-4.847,3.099-8.662,3.099C598.482,80.185,596.415,79.718,594.509,78.783z"/>
	<path d="M648.967,75.153v4.609h-26.912V42.679h26.17v4.609h-20.873v11.389h18.595v4.503h-18.595v11.972H648.967z"/>
	<path fill="#E6314D" d="M502.809,134.063h-19.708l-4.078,9.27h-5.457l16.793-37.083h5.245l16.845,37.083h-5.562L502.809,134.063z
		 M500.955,129.825l-7.999-18.171l-7.999,18.171H500.955z"/>
	<path fill="#E6314D" d="M522.411,110.86h-12.715v-4.609h30.673v4.609h-12.714v32.474h-5.244V110.86z"/>
	<path fill="#E6314D" d="M551.175,141.294c-3.002-1.642-5.359-3.911-7.072-6.808c-1.713-2.896-2.57-6.126-2.57-9.695
		c0-3.566,0.857-6.798,2.57-9.694c1.712-2.896,4.069-5.166,7.072-6.808c3.002-1.642,6.375-2.462,10.118-2.462
		c3.709,0,7.064,0.82,10.066,2.462c3.001,1.642,5.351,3.903,7.045,6.781c1.696,2.879,2.544,6.119,2.544,9.72
		c0,3.603-0.848,6.844-2.544,9.722c-1.694,2.879-4.044,5.139-7.045,6.781c-3.002,1.641-6.357,2.462-10.066,2.462
		C557.55,143.757,554.178,142.936,551.175,141.294z M568.632,137.188c2.172-1.236,3.884-2.94,5.139-5.112
		c1.253-2.172,1.881-4.599,1.881-7.285c0-2.683-0.627-5.111-1.881-7.283c-1.255-2.172-2.967-3.875-5.139-5.112
		c-2.172-1.236-4.618-1.854-7.338-1.854c-2.72,0-5.183,0.618-7.39,1.854c-2.208,1.237-3.939,2.94-5.191,5.112
		c-1.255,2.172-1.881,4.6-1.881,7.283c0,2.685,0.626,5.112,1.881,7.285c1.252,2.172,2.983,3.877,5.191,5.112
		c2.206,1.237,4.67,1.854,7.39,1.854C564.013,139.042,566.459,138.425,568.632,137.188z M554.46,101.563
		c-0.53-0.512-0.795-1.157-0.795-1.934s0.265-1.431,0.795-1.961s1.166-0.795,1.907-0.795c0.741,0,1.378,0.265,1.907,0.795
		s0.795,1.184,0.795,1.961s-0.265,1.422-0.795,1.934c-0.53,0.512-1.166,0.768-1.907,0.768
		C555.626,102.331,554.99,102.075,554.46,101.563z M564.314,101.563c-0.53-0.512-0.795-1.157-0.795-1.934s0.265-1.431,0.795-1.961
		c0.53-0.53,1.166-0.795,1.907-0.795s1.378,0.265,1.907,0.795s0.795,1.184,0.795,1.961s-0.265,1.422-0.795,1.934
		c-0.53,0.512-1.166,0.768-1.907,0.768S564.844,102.075,564.314,101.563z"/>
	<path fill="#E6314D" d="M587.994,106.25h5.297v32.474h20.078v4.609h-25.376V106.25z"/>
	<path fill="#E6314D" d="M628.732,130.513v12.82h-5.244v-12.927L608.76,106.25h5.669l11.866,19.548l11.919-19.548h5.245
		L628.732,130.513z"/>
	<path fill="#E6314D" d="M674.026,138.724v4.609h-26.912V106.25h26.17v4.609h-20.873v11.389h18.595v4.503h-18.595v11.972H674.026z"
		/>
	<path fill="#E6314D" d="M684.277,142.459c-2.595-0.864-4.636-1.986-6.119-3.363l1.961-4.133c1.412,1.272,3.222,2.305,5.429,3.1
		c2.206,0.795,4.476,1.191,6.808,1.191c3.072,0,5.367-0.521,6.887-1.563c1.518-1.042,2.277-2.428,2.277-4.158
		c0-1.272-0.416-2.305-1.245-3.1c-0.83-0.795-1.854-1.403-3.073-1.827c-1.218-0.423-2.939-0.9-5.164-1.43
		c-2.791-0.67-5.041-1.342-6.755-2.014c-1.713-0.67-3.178-1.703-4.396-3.099c-1.219-1.395-1.829-3.276-1.829-5.642
		c0-1.978,0.521-3.761,1.564-5.351c1.04-1.589,2.622-2.86,4.741-3.815c2.119-0.953,4.75-1.43,7.893-1.43
		c2.19,0,4.344,0.283,6.463,0.847c2.119,0.565,3.938,1.378,5.457,2.437l-1.749,4.238c-1.554-0.987-3.214-1.739-4.979-2.251
		c-1.767-0.512-3.497-0.768-5.192-0.768c-3.002,0-5.253,0.547-6.754,1.642c-1.502,1.095-2.252,2.508-2.252,4.238
		c0,1.271,0.423,2.304,1.271,3.099s1.898,1.413,3.152,1.854c1.253,0.442,2.958,0.91,5.112,1.404
		c2.789,0.672,5.033,1.342,6.728,2.013c1.696,0.672,3.152,1.696,4.371,3.073c1.218,1.378,1.827,3.232,1.827,5.562
		c0,1.943-0.53,3.717-1.589,5.324c-1.059,1.607-2.668,2.879-4.821,3.815c-2.154,0.935-4.803,1.403-7.946,1.403
		C689.566,143.757,686.873,143.325,684.277,142.459z"/>
	<path fill="#E6314D" d="M713.386,120.49h5.297v22.844h-5.297V120.49z"/>
	<path fill="#E6314D" d="M713.386,105.827h5.297v7.794l-5.297,1.945V105.827z"/>
	<path fill="#E6314D" d="M718.684,127.262h-5.297v-7.794l5.297-1.945V127.262z"/>
	<path fill="#E6314D" d="M718.684,143.334h-5.297V127.79l5.297-3.88V143.334z"/>
</g>
<g>
	<g id="LINE_1_">
		<g id="XMLID_2_">
			<g>
				<path fill="#E6314D" d="M418.816,0.449v185.115H225.049V0.449H418.816z M410.595,177.344V8.669H233.27v168.675H410.595z"/>
				<path fill="#E6314D" d="M400.437,109.447v12.546h-6.282v38.911h-12.528v-38.911h-64.379l76.907-96.883v84.337H400.437z
					 M381.627,109.447v-48.37l-38.409,48.37H381.627z"/>
				<polygon fill="#E6314D" points="329.794,25.109 329.794,37.655 262.238,37.655 262.238,88.412 317.248,88.412 317.248,100.957 
					262.238,100.957 262.238,160.903 249.71,160.903 249.71,25.109 				"/>
				<polygon fill="#121212" points="208.609,88.412 208.609,100.957 183.536,100.957 183.536,160.903 170.99,160.903 170.99,50.775 
					183.536,50.775 183.536,88.412 				"/>
				<polygon fill="#121212" points="158.445,88.412 158.445,100.957 133.371,100.957 133.371,160.903 120.826,160.903 
					120.826,88.412 				"/>
				<path fill="#121212" d="M108.28,25.109v135.794l-56.303-44.708l-35.501,44.708H0.449l41.711-52.498l-4.918-3.913l7.789-9.818
					l4.918,3.913L108.28,25.109z M95.734,134.933V61.077l-35.968,45.301L95.734,134.933z"/>
			</g>
			<g>
			</g>
		</g>
	</g>
</g>
</svg>
