<?xml version="1.0" encoding="utf-8"?>
<!-- Generator: Adobe Illustrator 17.0.0, SVG Export Plug-In . SVG Version: 6.00 Build 0)  -->
<!DOCTYPE svg PUBLIC "-//W3C//DTD SVG 1.1//EN" "http://www.w3.org/Graphics/SVG/1.1/DTD/svg11.dtd">
<svg version="1.1" id="katman_1" xmlns="http://www.w3.org/2000/svg" xmlns:xlink="http://www.w3.org/1999/xlink" x="0px" y="0px"
	 width="144.509px" height="150.486px" viewBox="0 0 144.509 150.486" enable-background="new 0 0 144.509 150.486"
	 xml:space="preserve">
<g>
	<path fill="#E6314D" d="M72.45,0c1.42,0.4,2.919,0.628,4.246,1.233c3.298,1.502,5.271,4.153,5.799,7.735
		c0.687,4.66-1.081,8.254-5.059,10.75c-0.549,0.345-1.181,0.564-1.786,0.812c-0.466,0.191-0.746,0.45-0.741,1.009
		c0.019,2.142,0.025,4.284-0.008,6.426c-0.011,0.681,0.247,0.953,0.909,1.063c2.361,0.391,4.765,0.651,7.061,1.288
		c9.467,2.625,16.991,8.036,22.578,16.127c3.228,4.675,5.396,9.823,6.299,15.408c0.516,3.195,0.506,6.477,0.687,9.723
		c0.072,1.297,0.017,1.316,1.277,1.299c1.911-0.026,3.827-0.005,5.732-0.131c3.256-0.215,6.269-3.069,6.325-7.121
		c0.059-4.227,0.008-8.455,0.024-12.683c0.002-0.624-0.241-0.878-0.851-1.046c-5.998-1.65-10.002-5.461-11.59-11.461
		c-1.828-6.902,0.977-14.021,7.27-17.794c1.454-0.872,3.045-0.497,3.886,0.855c0.798,1.285,0.405,2.867-1.018,3.771
		c-2.52,1.601-4.211,3.769-4.985,6.688c-1.133,4.271,1.028,9.385,4.953,11.517c4.251,2.309,8.957,1.707,12.496-1.598
		c4.414-4.122,4.108-11.727-0.63-15.467c-0.514-0.406-1.053-0.784-1.598-1.148c-1.257-0.837-1.67-2.381-0.965-3.68
		c0.7-1.291,2.232-1.798,3.606-1.094c3.471,1.778,5.778,4.621,7.112,8.224c3.399,9.187-1.92,19.036-11.424,21.201
		c-0.734,0.167-0.801,0.568-0.8,1.159c0.009,4.085,0.021,8.17,0,12.254c-0.022,4.27-1.552,7.844-4.975,10.509
		c-2.345,1.826-5.043,2.601-7.982,2.622c-1.628,0.012-3.257,0.027-4.884-0.007c-0.686-0.014-0.971,0.192-0.97,0.92
		c0.018,9.34,0.016,18.68,0.016,28.019c0,0.8,0.016,1.601-0.026,2.399c-0.089,1.676-0.979,2.619-2.641,2.825
		c-0.367,0.045-0.741,0.039-1.112,0.039c-24.366,0.002-48.732,0.005-73.097-0.013c-0.726-0.001-1.511-0.077-2.165-0.358
		c-1.28-0.551-1.514-1.767-1.518-3.015c-0.012-3.828-0.004-7.655-0.004-11.483c0-6.084,0-12.169-0.001-18.253
		c0-1.132-0.013-1.123-1.149-1.152c-2.338-0.061-4.688-0.018-7.011-0.247c-2.894-0.284-5.285-1.721-7.265-3.818
		c-2.49-2.639-3.399-5.878-3.42-9.416c-0.023-3.885-0.022-7.77,0.009-11.654c0.006-0.797-0.177-1.17-1.038-1.413
		C5.896,50.089,2.013,46.088,0.437,39.931c-1.695-6.622,1.681-14.21,7.695-17.492c1.308-0.714,2.914-0.315,3.692,0.917
		c0.792,1.255,0.486,2.864-0.797,3.689c-2.07,1.33-3.681,3.003-4.687,5.299c-1.708,3.894-0.505,9.166,2.811,11.85
		c3.882,3.142,8.285,3.445,12.554,0.866c3.305-1.997,5.262-6.495,4.619-10.268c-0.572-3.357-2.364-5.799-5.178-7.591
		c-0.995-0.633-1.527-1.546-1.363-2.747c0.152-1.115,0.775-1.963,1.876-2.2c0.647-0.14,1.485-0.121,2.046,0.182
		c3.86,2.085,6.416,5.311,7.562,9.518c1.577,5.79,0.258,10.971-3.788,15.402c-2.158,2.363-4.882,3.824-7.992,4.547
		c-0.515,0.12-0.836,0.278-0.834,0.865c0.017,4.484-0.086,8.972,0.067,13.452c0.129,3.793,3.034,6.519,6.91,6.721
		c1.823,0.095,3.655,0.015,5.483,0.035c0.603,0.007,0.781-0.275,0.79-0.84c0.029-1.827,0.064-3.655,0.153-5.48
		c0.292-6.003,1.955-11.623,4.836-16.883c3.363-6.141,8.03-11.07,13.954-14.79c3.974-2.496,8.259-4.265,12.87-5.181
		c1.564-0.311,3.152-0.512,4.734-0.722c0.676-0.09,0.995-0.331,0.979-1.084c-0.046-2.113-0.036-4.228-0.004-6.341
		c0.009-0.618-0.223-0.922-0.788-1.132c-6.89-2.567-9.174-10.825-4.545-16.551c1.614-1.996,3.734-3.234,6.308-3.634
		C70.693,0.293,70.967,0.116,71.251,0C71.651,0,72.051,0,72.45,0z M72.14,107.116c11.196,0,22.391,0,33.587-0.001
		c1.207,0,1.217-0.009,1.223-1.173c0.062-12.081,0.123-24.161,0.185-36.242c0.021-4.057-0.571-8.014-1.902-11.855
		c-2.128-6.14-5.7-11.303-10.682-15.441c-4.835-4.017-10.372-6.556-16.617-7.568c-7.062-1.144-13.819-0.219-20.29,2.769
		c-5.978,2.76-10.795,6.925-14.417,12.412c-3.979,6.028-5.809,12.694-5.78,19.919c0.047,11.967,0.013,23.934,0.013,35.9
		c0,1.277,0.002,1.279,1.266,1.279C49.863,107.116,61.002,107.116,72.14,107.116z M72.151,15.661
		c2.773,0.01,4.957-2.136,4.985-4.899c0.028-2.768-2.123-4.97-4.884-5c-2.793-0.03-5.048,2.175-5.052,4.941
		C67.195,13.437,69.407,15.652,72.151,15.661z"/>
	<path fill="#E6314D" d="M71.079,150.486c-1.57-0.4-3.197-0.65-4.7-1.226c-5.357-2.053-8.79-5.91-10.209-11.477
		c-1.87-7.337,1.61-14.768,7.929-18.361c9.255-5.262,21.4-0.153,24.017,10.148c2.068,8.141-1.782,16.106-9.482,19.449
		c-1.264,0.549-2.675,0.759-4.016,1.13c-0.382,0.105-0.76,0.225-1.139,0.337C72.679,150.486,71.879,150.486,71.079,150.486z
		 M83.194,133.863c-0.238-6.388-5.038-10.996-11.073-10.952c-6.286,0.046-10.922,5.009-10.896,10.988
		c0.027,6.232,4.971,10.959,10.869,10.912C78.552,144.76,82.96,139.861,83.194,133.863z"/>
	<path fill="#E6314D" d="M109.815,150.486c-1.544-0.387-3.139-0.635-4.623-1.186c-5.123-1.904-8.536-5.535-10.117-10.749
		c-2.206-7.278,0.847-14.97,7.356-18.887c9.457-5.692,21.878-0.51,24.48,10.213c2.098,8.643-2.782,17.212-11.296,19.786
		c-1.167,0.353-2.38,0.553-3.572,0.824C111.3,150.486,110.558,150.486,109.815,150.486z M121.875,133.823
		c-0.126-6.169-4.908-10.949-10.99-10.912c-6.336,0.038-10.995,4.919-10.944,11.029c0.052,6.298,4.927,10.862,10.826,10.871
		C117.118,144.821,121.78,139.882,121.875,133.823z"/>
	<path fill="#E6314D" d="M32.344,150.486c-1.596-0.41-3.232-0.705-4.781-1.249c-6.583-2.312-11.013-9.336-10.584-16.307
		c0.419-6.799,4.894-12.842,11.644-14.879c8.302-2.505,17.151,1.624,20.289,9.977c3.391,9.028-1.469,18.776-10.685,21.619
		c-1.191,0.368-2.436,0.563-3.655,0.839C33.829,150.486,33.087,150.486,32.344,150.486z M44.437,133.67
		c-0.173-6.113-5.048-10.825-11.051-10.766c-6.465,0.064-11.092,5.452-10.872,11.357c0.219,5.857,5.045,10.633,10.886,10.555
		C40.14,144.727,44.472,139.394,44.437,133.67z"/>
	<path fill="#E6314D" d="M97.217,57.302c-0.075,5.862-4.46,10.451-10.441,10.435c-5.978-0.016-10.309-4.659-10.356-10.332
		c-0.046-5.649,4.266-10.463,10.381-10.473C92.719,46.923,97.119,51.471,97.217,57.302z M91.709,57.277
		c-0.012-2.679-2.27-4.901-4.946-4.866c-2.691,0.035-4.889,2.277-4.86,4.957c0.028,2.63,2.264,4.824,4.908,4.814
		C89.518,62.173,91.721,59.966,91.709,57.277z"/>
	<path fill="#E6314D" d="M57.595,67.724c-5.775-0.133-10.387-4.288-10.43-10.362c-0.042-5.89,4.309-10.446,10.398-10.45
		c5.978-0.004,10.367,4.477,10.38,10.378C67.957,63.132,63.566,67.542,57.595,67.724z M52.706,57.335
		c0.02,2.705,2.242,4.887,4.935,4.847c2.669-0.04,4.834-2.221,4.836-4.872c0.002-2.696-2.206-4.901-4.903-4.897
		C54.883,52.416,52.686,54.637,52.706,57.335z"/>
	<path fill="#E6314D" d="M72.22,75.228c4.711,0.001,9.422-0.006,14.133,0.004c1.621,0.004,2.56,0.582,3.003,1.783
		c0.641,1.739-0.479,3.44-2.435,3.688c-0.254,0.032-0.513,0.025-0.77,0.025c-9.336,0.001-18.672,0.002-28.009-0.001
		c-1.897-0.001-2.939-0.767-3.253-2.364c-0.277-1.409,0.749-2.866,2.175-3.058c0.451-0.061,0.91-0.075,1.366-0.075
		C63.026,75.226,67.623,75.228,72.22,75.228z"/>
</g>
</svg>
