<?xml version="1.0" encoding="utf-8"?>
<!-- Generator: Adobe Illustrator 17.0.0, SVG Export Plug-In . SVG Version: 6.00 Build 0)  -->
<!DOCTYPE svg PUBLIC "-//W3C//DTD SVG 1.1//EN" "http://www.w3.org/Graphics/SVG/1.1/DTD/svg11.dtd">
<svg version="1.1" id="katman_1" xmlns="http://www.w3.org/2000/svg" xmlns:xlink="http://www.w3.org/1999/xlink" x="0px" y="0px"
	 width="144.881px" height="144.492px" viewBox="0 0 144.881 144.492" enable-background="new 0 0 144.881 144.492"
	 xml:space="preserve">
<path fill="#E6314D" d="M0,68.673c0-0.217,0-0.434,0-0.651c0.718-1.906,2.33-3.079,3.682-4.457c2.546-2.594,5.115-5.166,7.704-7.717
	c0.582-0.574,0.856-1.161,0.843-1.996c-0.046-2.983-0.022-5.967-0.017-8.951c0.006-4.177-0.046-8.356,0.054-12.531
	c0.059-2.471,1.187-4.518,3.055-6.154c1.907-1.671,4.181-2.187,6.635-2.187c22.867,0.001,45.733-0.004,68.6,0.018
	c0.97,0.001,1.663-0.282,2.351-0.976c6.689-6.737,13.437-13.416,20.115-20.164c3.483-3.52,8.905-3.968,12.606-0.658
	c1.794,1.605,3.491,3.339,5.076,5.15c2.613,2.986,2.657,7.783,0.1,10.802c-1.468,1.734-3.143,3.292-4.723,4.932
	c-0.195,0.203-0.375,0.42-0.702,0.788c0.49,0.05,0.77,0.102,1.051,0.103c1.817,0.008,3.635-0.024,5.452,0.014
	c1.109,0.024,2.254-0.004,3.318,0.256c4.526,1.106,7.642,3.815,9.023,8.344c0.281,0.922,0.441,1.882,0.657,2.824
	c0,30.55,0,61.1,0,91.649c-0.099,0.305-0.261,0.604-0.285,0.915c-0.139,1.772-0.745,3.389-1.699,4.858
	c-2.086,3.211-5.024,5.203-8.869,5.449c-3.351,0.214-6.723,0.119-10.085,0.117c-0.522,0-1.088-0.137-1.556-0.369
	c-1.261-0.626-1.533-1.796-1.532-3.086c0.005-4.476,0.002-8.952,0.001-13.428c0-1.186-0.006-1.193-1.169-1.194
	c-8.355-0.003-16.711-0.005-25.066-0.004c-0.195,0-0.39,0.05-0.798,0.105c0.586,0.605,1.031,1.065,1.476,1.524
	c1.509,1.558,1.55,3.206,0.034,4.727c-5.552,5.573-11.119,11.133-16.701,16.676c-0.407,0.404-0.949,0.74-1.49,0.929
	c-1.352,0.471-2.399-0.159-3.331-1.092c-7.305-7.311-14.623-14.611-21.91-21.94c-0.666-0.67-1.341-0.947-2.286-0.944
	c-9.223,0.03-18.447,0.008-27.67,0.025c-2.254,0.004-4.368-0.4-6.189-1.818c-2.466-1.92-3.558-4.472-3.551-7.576
	c0.021-9.413-0.002-18.827,0.023-28.24c0.002-0.804-0.25-1.373-0.813-1.927c-2.496-2.452-4.983-4.915-7.424-7.423
	C2.552,71.92,0.805,70.69,0,68.673z M18.075,48.97c0.616-0.273,1.037-0.533,1.495-0.649c1.379-0.348,2.385,0.323,3.315,1.254
	c21.365,21.376,42.739,42.742,64.094,64.127c0.627,0.628,1.255,0.891,2.138,0.89c14.243-0.022,28.486-0.022,42.729-0.007
	c1.652,0.002,3.305,0.103,4.874,0.718c0.694,0.272,1.385,0.554,2.192,0.877c0.029-0.451,0.074-0.814,0.074-1.178
	c0.003-14.759,0.003-29.517,0.003-44.276c0-11.367,0-22.735,0-34.102c0-1.614-0.334-3.12-1.367-4.416
	c-1.377-1.727-3.23-2.399-5.368-2.406c-3.879-0.012-7.759,0.017-11.638-0.021c-0.86-0.008-1.472,0.268-2.073,0.87
	c-10.882,10.91-21.785,21.8-32.674,32.704c-1.077,1.078-2.131,2.166-3.59,2.734c-0.02,0.008-0.01,0.093-0.022,0.247
	c8.748,0,17.489,0,26.311,0c0,1.645-0.043,3.189,0.018,4.729c0.032,0.805-0.178,1.064-1.027,1.059
	c-6.402-0.036-12.805-0.022-19.208-0.018c-8.139,0.005-16.278,0.016-24.416,0.022c-2.634,0.002-3.965-1.857-3.133-4.357
	c1.847-5.553,3.703-11.102,5.524-16.663c0.446-1.361,1.046-2.567,2.091-3.602c5.631-5.572,11.219-11.187,16.817-16.793
	c0.21-0.21,0.368-0.471,0.668-0.861c-0.499-0.025-0.786-0.052-1.072-0.052c-10.689-0.002-21.378-0.001-32.067-0.001
	c-10.309,0-20.619-0.004-30.928,0.003c-2.554,0.002-3.81,1.264-3.811,3.788c-0.003,4.775-0.002,9.55,0.001,14.324
	C18.024,48.225,18.053,48.537,18.075,48.97z M70.315,118.27c0.364-0.255,0.64-0.396,0.849-0.603
	c1.735-1.717,3.442-3.464,5.195-5.163c0.501-0.485,0.46-0.787-0.013-1.253c-2.263-2.225-4.507-4.469-6.732-6.732
	c-0.475-0.483-0.78-0.478-1.254,0.011c-1.718,1.772-3.478,3.504-5.225,5.247c-0.202,0.201-0.423,0.383-0.529,0.479
	c-1.399-1.383-2.723-2.691-4.092-4.045c0.154-0.164,0.347-0.383,0.554-0.59c1.725-1.728,3.434-3.472,5.19-5.167
	c0.528-0.51,0.485-0.817-0.015-1.307c-2.247-2.202-4.475-4.425-6.673-6.676c-0.512-0.524-0.818-0.488-1.305,0.013
	c-1.701,1.751-3.441,3.463-5.169,5.188c-0.204,0.204-0.426,0.39-0.715,0.653c-1.179-1.188-2.272-2.355-3.44-3.441
	c-0.577-0.537-0.482-0.851,0.032-1.35c1.791-1.737,3.532-3.526,5.311-5.276c0.391-0.385,0.438-0.638,0.015-1.054
	c-2.301-2.263-4.588-4.542-6.846-6.848c-0.491-0.501-0.778-0.443-1.234,0.026c-1.722,1.768-3.481,3.501-5.228,5.244
	c-0.202,0.201-0.423,0.382-0.486,0.44c-1.428-1.356-2.777-2.637-4.175-3.964c0.227-0.24,0.442-0.477,0.668-0.703
	c1.725-1.728,3.442-3.463,5.185-5.172c0.432-0.424,0.42-0.717-0.006-1.138c-2.297-2.268-4.58-4.55-6.848-6.847
	c-0.428-0.434-0.72-0.412-1.135,0.015c-1.283,1.325-2.608,2.609-3.9,3.925c-0.643,0.655-1.249,1.347-1.87,2.021
	c-1.461-1.477-2.787-2.817-4.154-4.199c0.149-0.159,0.325-0.359,0.513-0.546c1.745-1.746,3.474-3.509,5.249-5.223
	c0.525-0.507,0.491-0.814-0.01-1.307c-2.4-2.357-4.776-4.737-7.134-7.135c-0.473-0.481-0.768-0.479-1.245,0.002
	c-3.954,3.987-7.925,7.956-11.91,11.911c-0.485,0.481-0.461,0.77,0.017,1.248c22.663,22.642,45.315,45.294,67.954,67.958
	c0.49,0.49,0.769,0.471,1.238-0.002c3.956-3.985,7.925-7.957,11.914-11.909c0.494-0.489,0.465-0.781-0.012-1.25
	c-2.397-2.359-4.779-4.735-7.13-7.14c-0.504-0.516-0.79-0.514-1.29,0.003c-1.752,1.815-3.554,3.581-5.338,5.364
	c-0.248,0.247-0.469,0.568-0.864,0.172C72.997,120.924,71.763,119.707,70.315,118.27z M115.525,25.396
	c-0.208-0.241-0.352-0.432-0.521-0.601c-2.415-2.419-4.84-4.828-7.244-7.258c-0.408-0.412-0.678-0.473-1.125-0.025
	C95.887,28.287,85.13,39.051,74.355,49.799c-0.515,0.514-0.416,0.8,0.035,1.246c2.392,2.365,4.775,4.739,7.128,7.143
	c0.498,0.509,0.786,0.522,1.296,0.003c2.737-2.787,5.512-5.536,8.275-8.298c7.942-7.941,15.883-15.881,23.824-23.823
	C115.116,25.866,115.301,25.644,115.525,25.396z M44.569,114.518c-8.855-8.854-17.7-17.697-26.514-26.51
	c-0.006,0.122-0.031,0.409-0.032,0.695c-0.002,7.346-0.002,14.692-0.001,22.039c0.001,2.65,1.164,3.83,3.808,3.832
	c7.346,0.006,14.692,0.003,22.039-0.001C44.152,114.574,44.435,114.529,44.569,114.518z M126.845,12.837
	c0.016-0.97-0.48-1.709-1.115-2.36c-1.192-1.222-2.397-2.432-3.621-3.621c-1.513-1.47-3.239-1.492-4.743-0.028
	c-1.864,1.814-3.681,3.676-5.535,5.501c-0.401,0.394-0.4,0.675,0.002,1.073c2.465,2.44,4.917,4.893,7.356,7.358
	c0.405,0.409,0.681,0.378,1.07-0.017c1.824-1.854,3.681-3.676,5.505-5.531C126.402,14.561,126.879,13.807,126.845,12.837z
	 M126.665,126.548c0,1.761,0.017,3.521-0.009,5.281c-0.009,0.622,0.201,0.883,0.845,0.861c1.028-0.035,2.058,0.007,3.087-0.012
	c1.163-0.022,2.354,0.073,3.482-0.146c2.785-0.54,4.955-3.231,4.873-5.84c-0.104-3.323-2.14-5.82-5.307-6.178
	c-2.008-0.227-4.055-0.088-6.084-0.15c-0.681-0.021-0.907,0.245-0.897,0.902C126.682,123.027,126.665,124.787,126.665,126.548z
	 M76.563,61.728c-0.086-0.224-0.098-0.348-0.166-0.417c-1.657-1.674-3.314-3.348-4.985-5.007c-0.375-0.373-0.605-0.175-0.749,0.261
	c-0.798,2.414-1.607,4.823-2.4,7.239c-0.051,0.156-0.061,0.425,0.03,0.503c0.105,0.09,0.354,0.07,0.519,0.022
	c0.518-0.152,1.026-0.34,1.538-0.513C72.394,63.128,74.438,62.441,76.563,61.728z"/>
</svg>
