<?xml version="1.0" encoding="utf-8"?>
<!-- Generator: Adobe Illustrator 17.0.0, SVG Export Plug-In . SVG Version: 6.00 Build 0)  -->
<!DOCTYPE svg PUBLIC "-//W3C//DTD SVG 1.1//EN" "http://www.w3.org/Graphics/SVG/1.1/DTD/svg11.dtd">
<svg version="1.1" id="katman_1" xmlns="http://www.w3.org/2000/svg" xmlns:xlink="http://www.w3.org/1999/xlink" x="0px" y="0px"
	 width="157.27px" height="117.593px" viewBox="0 0 157.27 117.593" enable-background="new 0 0 157.27 117.593"
	 xml:space="preserve">
<g>
	<path fill="#E6314D" d="M0,58.433c1.076-1.269,2.071-2.619,3.241-3.794C15.588,42.252,27.962,29.89,40.337,17.531
		c0.458-0.457,0.952-0.948,1.527-1.202c1.096-0.484,2.139-0.207,2.994,0.638c1.394,1.378,2.805,2.742,4.147,4.171
		c1.148,1.222,1.116,2.57,0.006,3.842c-0.347,0.398-0.736,0.76-1.11,1.134C37.274,36.745,26.652,47.381,16.006,57.993
		c-0.64,0.637-0.64,0.989-0.001,1.627c10.866,10.832,21.706,21.69,32.557,32.537c0.874,0.874,1.589,1.814,1.133,3.126
		c-0.177,0.508-0.504,1.004-0.877,1.397c-1.222,1.285-2.483,2.534-3.755,3.77c-1.478,1.435-2.927,1.433-4.397-0.036
		C27.543,87.305,14.427,74.19,1.327,61.059C0.793,60.524,0.438,59.811,0,59.18C0,58.931,0,58.682,0,58.433z"/>
	<path fill="#E6314D" d="M157.27,59.18c-1.076,1.269-2.07,2.619-3.241,3.794c-12.348,12.388-24.722,24.75-37.097,37.109
		c-0.458,0.457-0.952,0.951-1.528,1.2c-1.052,0.455-2.088,0.242-2.926-0.579c-1.423-1.394-2.858-2.777-4.22-4.229
		c-1.179-1.258-1.114-2.684,0.135-3.982c1.445-1.502,2.938-2.959,4.413-4.434c9.485-9.485,18.965-18.975,28.469-28.44
		c0.641-0.638,0.638-0.991-0.002-1.628c-10.868-10.831-21.71-21.687-32.564-32.532c-0.878-0.877-1.576-1.821-1.131-3.129
		c0.173-0.509,0.502-1.005,0.875-1.398c1.222-1.285,2.483-2.535,3.755-3.77c1.479-1.436,2.923-1.436,4.395,0.035
		c13.122,13.11,26.239,26.225,39.339,39.357c0.534,0.535,0.889,1.249,1.327,1.879C157.27,58.682,157.27,58.931,157.27,59.18z"/>
	<path fill="#E6314D" d="M92.56,0.008c1.623,0.472,3.739,0.992,5.783,1.716c1.289,0.456,1.791,1.508,1.449,2.873
		c-0.696,2.772-1.501,5.517-2.291,8.265c-2.63,9.141-5.271,18.279-7.912,27.416c-2.494,8.63-4.996,17.258-7.489,25.889
		c-3.037,10.512-6.064,21.026-9.102,31.537c-1.709,5.913-3.42,11.825-5.158,17.729c-0.544,1.847-1.673,2.476-3.55,2.018
		c-1.63-0.398-3.25-0.842-4.859-1.318c-1.57-0.465-2.33-1.606-1.935-3.206c0.686-2.774,1.508-5.515,2.299-8.262
		c2.622-9.111,5.253-18.219,7.884-27.327c2.796-9.676,5.598-19.349,8.393-29.025c2.942-10.183,5.876-20.368,8.82-30.551
		c1.511-5.226,3.027-10.45,4.561-15.669C89.861,0.706,90.894-0.087,92.56,0.008z"/>
</g>
</svg>
